<?xml version="1.0" standalone="no"?>
<!DOCTYPE svg PUBLIC "-//W3C//DTD SVG 20010904//EN"
 "http://www.w3.org/TR/2001/REC-SVG-20010904/DTD/svg10.dtd">
<svg version="1.0" xmlns="http://www.w3.org/2000/svg"
 width="400.000000pt" height="400.000000pt" viewBox="0 0 400.000000 400.000000"
 preserveAspectRatio="xMidYMid meet">

<g transform="translate(0.000000,400.000000) scale(0.100000,-0.100000)"
fill="#000000" stroke="none">
<path d="M1947 3323 c-4 -3 -7 -48 -7 -100 l0 -93 -50 0 -50 0 0 95 0 95 -30
0 -30 0 0 -125 0 -125 80 0 80 0 0 -40 0 -40 -51 0 c-49 0 -50 -1 -47 -27 3
-26 7 -28 51 -31 46 -3 47 -4 47 -38 l0 -34 -60 0 -60 0 0 -30 0 -30 60 0 60
0 0 -35 0 -35 -51 0 c-49 0 -50 -1 -47 -27 3 -26 7 -28 51 -31 l48 -3 -3 -146
-3 -145 -56 -17 c-30 -10 -70 -26 -87 -36 l-31 -19 -173 170 c-95 94 -175 175
-178 180 -3 5 19 10 48 12 40 2 62 -2 89 -18 33 -20 37 -20 54 -4 24 21 11 39
-46 65 -47 22 -115 24 -167 5 -32 -12 -39 -11 -49 1 -10 11 -2 25 44 71 l57
57 -118 118 -118 118 -19 -21 c-19 -21 -18 -21 78 -118 l97 -98 -38 -37 c-32
-31 -41 -35 -50 -24 -9 11 -6 19 13 37 24 22 24 24 8 42 -9 10 -22 17 -29 14
-7 -3 -14 8 -18 26 -12 61 -96 110 -161 94 -14 -4 -42 -21 -61 -39 -37 -34
-52 -84 -40 -131 9 -37 53 -84 86 -91 17 -4 30 -12 30 -19 0 -7 8 -20 18 -29
17 -16 20 -15 42 8 18 19 26 22 37 13 11 -9 7 -18 -24 -50 l-37 -38 -98 97
c-97 96 -97 97 -118 78 l-21 -19 118 -118 118 -118 57 57 c47 47 59 54 72 44
13 -11 13 -17 -1 -49 -19 -45 -14 -122 12 -175 22 -46 41 -56 60 -31 12 16 11
23 -6 50 -19 31 -27 123 -12 138 4 4 87 -73 184 -170 l177 -177 -29 -57 c-16
-32 -32 -72 -35 -89 l-6 -31 -329 0 -329 0 0 170 0 170 -130 0 -130 0 0 -30 0
-30 100 0 100 0 0 -65 0 -65 -100 0 -100 0 0 -30 0 -30 100 0 100 0 0 -45 0
-44 -112 -3 -113 -3 0 -55 0 -55 113 -3 112 -3 0 -54 0 -55 -100 0 -100 0 0
-25 0 -25 100 0 100 0 0 -60 0 -60 -100 0 -100 0 0 -30 0 -30 130 0 130 0 0
170 0 170 328 0 328 0 17 -56 c10 -31 26 -69 37 -84 11 -16 20 -33 20 -38 0
-11 -300 -302 -311 -302 -4 0 -9 13 -12 29 -7 33 6 88 27 116 12 16 12 22 -1
42 -13 20 -18 21 -31 11 -44 -37 -65 -148 -41 -217 15 -41 5 -50 -24 -23 l-24
22 -18 -20 c-18 -20 -18 -21 4 -44 16 -17 19 -26 11 -31 -7 -4 -33 14 -65 45
-44 43 -56 50 -71 42 -11 -6 -66 -58 -123 -116 -104 -105 -105 -105 -86 -126
l19 -21 96 96 c52 52 100 95 105 95 5 0 24 -14 42 -32 l33 -32 -22 -23 -22
-23 -23 22 c-22 21 -23 21 -43 3 l-20 -18 21 -23 c18 -20 20 -26 9 -39 -12
-14 -15 -13 -36 6 -23 22 -24 22 -44 4 l-20 -18 21 -24 c22 -22 22 -23 4 -43
-19 -20 -18 -21 17 -57 35 -35 37 -36 61 -20 22 14 25 14 45 -6 21 -20 22 -20
42 -2 l20 18 -22 24 c-20 22 -21 25 -5 40 15 16 18 15 40 -5 l24 -22 18 20
c18 20 18 21 -4 43 l-21 24 20 18 c20 18 21 18 55 -15 l35 -34 -97 -98 c-96
-97 -97 -97 -78 -118 l19 -21 118 118 118 118 -56 56 c-37 37 -52 59 -44 64 6
4 22 -2 34 -14 l23 -21 18 20 c18 20 18 21 -3 43 -29 31 -19 39 30 21 58 -20
106 -17 164 10 62 29 69 38 45 60 -18 16 -21 16 -60 -3 -40 -21 -105 -27 -128
-13 -8 5 38 58 142 162 l154 154 56 -28 c32 -15 72 -30 91 -33 l34 -6 0 -243
0 -244 -160 0 -160 0 0 -195 0 -195 -25 0 c-21 0 -25 -5 -25 -30 l0 -31 78 3
c76 3 77 3 80 31 3 23 0 27 -22 27 l-26 0 0 165 0 165 25 0 c23 0 25 -4 25
-40 0 -36 3 -40 25 -40 23 0 25 4 25 40 l0 40 80 0 80 0 0 -65 0 -65 -70 0
-70 0 0 -80 0 -80 30 0 c29 0 30 1 30 50 l0 50 40 0 39 0 3 -107 3 -108 53 -3
52 -3 0 110 0 111 40 0 40 0 0 -50 c0 -49 1 -50 30 -50 l30 0 0 80 0 80 -70 0
-70 0 0 65 0 65 80 0 80 0 0 -41 c0 -38 1 -40 28 -37 23 3 27 8 30 41 3 29 7
37 23 37 18 0 19 -8 19 -164 0 -163 0 -165 -22 -168 -17 -2 -23 -10 -23 -28 0
-24 2 -25 78 -28 l77 -3 0 31 c0 25 -4 30 -25 30 l-25 0 0 195 0 195 -160 0
-160 0 0 244 0 243 39 7 c21 3 65 20 97 36 l58 31 98 -98 98 -97 -30 -31 c-34
-35 -37 -47 -15 -65 13 -11 21 -8 51 21 36 35 54 34 78 -4 8 -13 3 -24 -28
-56 -35 -36 -38 -42 -25 -58 7 -10 15 -20 16 -22 2 -3 23 15 48 39 l45 44 25
-24 25 -24 -35 -36 -36 -36 21 -19 c20 -18 21 -18 55 15 l35 34 25 -24 c14
-13 25 -28 25 -34 0 -6 -23 -30 -50 -54 -28 -24 -50 -49 -50 -55 0 -7 38 -50
85 -97 84 -83 84 -84 105 -65 l21 19 -68 68 -68 68 37 37 37 37 26 -24 25 -24
-22 -23 c-21 -22 -21 -23 -3 -43 l18 -20 24 22 23 21 25 -23 25 -24 40 39 40
39 -25 26 -25 26 22 22 c21 21 21 22 3 42 l-18 20 -23 -21 c-22 -21 -23 -21
-48 -3 -14 11 -26 21 -26 25 0 3 16 20 35 39 l35 34 70 -69 c70 -69 70 -69 90
-49 20 19 20 20 -70 109 l-90 89 -53 -52 c-29 -28 -57 -52 -63 -52 -6 0 -21
12 -35 26 l-24 26 38 30 38 31 -22 24 -23 23 -36 -35 -36 -35 -24 25 -24 25
42 43 43 43 -21 19 c-20 18 -21 18 -63 -23 l-43 -42 -24 25 -24 25 34 35 c32
33 33 35 16 54 -18 20 -19 20 -58 -11 l-39 -32 -99 99 -100 100 25 49 c13 27
27 64 31 82 l6 34 109 0 c73 0 109 -4 109 -11 0 -20 -61 -69 -101 -79 -33 -9
-39 -15 -39 -37 0 -24 2 -25 42 -20 55 7 117 52 142 104 27 54 56 58 56 8 0
-32 2 -35 30 -35 28 0 30 3 30 35 0 42 13 45 29 6 25 -59 114 -121 176 -121
20 0 25 5 25 23 0 19 -8 26 -39 35 -43 13 -86 44 -101 73 -10 18 -6 19 110 19
l120 0 0 -75 0 -75 125 0 125 0 0 25 0 25 -100 0 -100 0 0 50 0 49 103 3 102
3 0 55 0 55 -102 3 -103 3 0 49 0 50 100 0 100 0 0 30 0 30 -125 0 -125 0 0
-80 0 -80 -120 0 c-115 0 -120 1 -111 19 18 32 68 68 105 75 29 6 36 11 36 31
0 31 -6 33 -57 23 -48 -10 -124 -73 -143 -118 -17 -40 -30 -38 -30 5 0 32 -2
35 -30 35 -28 0 -30 -3 -30 -35 0 -51 -29 -46 -55 8 -23 49 -82 92 -142 106
-42 9 -43 8 -43 -18 0 -24 6 -30 42 -40 41 -13 98 -59 98 -80 0 -7 -38 -11
-108 -11 l-108 0 -13 49 c-7 27 -26 70 -42 96 -16 25 -29 49 -29 53 0 14 216
223 223 216 4 -4 7 -30 7 -57 0 -48 -1 -49 -18 -34 -40 37 -97 3 -72 -43 6
-11 15 -20 20 -20 5 0 22 -14 38 -31 l30 -32 28 42 c35 53 44 138 21 193 -22
52 -7 62 63 41 44 -13 62 -13 107 -3 30 6 66 22 81 35 25 22 26 25 10 41 -15
16 -19 15 -60 -5 -44 -21 -92 -27 -123 -15 -13 6 -3 21 51 75 l68 69 56 -55
56 -55 93 86 c92 87 92 87 72 107 -20 20 -20 20 -93 -46 l-73 -67 -35 35 -35
35 70 70 69 70 -39 40 -39 40 -71 -70 -71 -70 -34 35 -34 35 69 70 c67 68 68
70 51 89 -18 20 -20 19 -112 -67 l-93 -87 57 -58 57 -57 -68 -68 c-55 -54 -69
-64 -77 -52 -16 25 -11 71 11 118 22 44 22 44 2 64 -20 20 -20 20 -41 -14 -11
-18 -26 -54 -32 -80 -10 -40 -10 -56 4 -99 23 -68 12 -84 -46 -63 -70 24 -139
15 -202 -29 l-29 -20 27 -23 c14 -13 26 -27 26 -32 0 -5 9 -17 20 -27 17 -15
24 -16 45 -7 29 14 33 47 8 74 -15 17 -14 18 28 18 80 0 77 -8 -45 -129 -108
-106 -116 -112 -138 -100 -13 7 -48 20 -78 30 l-55 17 -3 146 -3 146 51 0 c49
0 50 1 50 30 0 29 -1 30 -50 30 l-50 0 0 35 0 35 60 0 60 0 0 30 0 30 -60 0
-60 0 0 35 0 35 50 0 c49 0 50 1 50 30 0 29 -1 30 -50 30 l-50 0 0 40 0 40 80
0 80 0 0 125 0 125 -25 0 c-25 0 -25 0 -25 -95 l0 -95 -55 0 -55 0 0 100 0
100 -48 0 c-27 0 -52 -3 -55 -7z m-869 -424 c-25 -31 -34 -37 -36 -24 -4 19
35 65 55 65 9 0 1 -16 -19 -41z m77 35 c16 -6 50 -62 43 -70 -3 -2 -22 14 -43
36 -37 38 -37 48 0 34z m-73 -111 c32 -30 36 -45 11 -36 -26 9 -53 34 -53 50
0 19 11 16 42 -14z m1003 -686 c112 -63 112 -231 0 -294 -91 -52 -210 -12
-251 84 -63 148 108 291 251 210z"/>
</g>
</svg>
